<?xml version="1.0" standalone="no"?>
<!DOCTYPE svg PUBLIC "-//W3C//DTD SVG 20010904//EN"
  "http://www.w3.org/TR/2001/REC-SVG-20010904/DTD/svg10.dtd">
<svg version="1.0" xmlns="http://www.w3.org/2000/svg"
  width="419.000000pt" height="223.000000pt" viewBox="0 0 419.000000 223.000000"
  preserveAspectRatio="xMidYMid meet">
    <g transform="translate(0.000000,223.000000) scale(0.100000,-0.100000)"
      fill="#000000" stroke="none">
        <path d="M370 1095 l0 -725 615 0 615 0 0 125 0 125 -490 0 -490 0 0 600 0
600 -125 0 -125 0 0 -725z"/>
        <path d="M2060 1802 c-126 -33 -212 -102 -264 -211 -29 -62 -31 -73 -31 -176
0 -91 4 -120 23 -167 28 -71 103 -154 169 -191 100 -54 133 -57 558 -57 442 0
470 -3 524 -65 74 -85 47 -238 -52 -293 -29 -16 -82 -17 -619 -20 l-588 -3 0
-125 0 -125 618 3 c613 3 617 3 672 25 113 46 199 139 233 248 7 23 12 92 11
160 0 100 -4 130 -22 176 -28 71 -85 137 -149 172 -97 52 -143 57 -566 57
-248 0 -404 4 -432 11 -90 23 -137 107 -116 208 11 57 36 92 86 119 27 15 91
17 583 20 l552 3 0 124 0 125 -562 -1 c-496 0 -571 -2 -628 -17z"/>
        <path d="M3550 1095 l0 -725 130 0 130 0 0 725 0 725 -130 0 -130 0 0 -725z"/>
    </g>
</svg>